<svg width="34" height="34" viewBox="0 0 34 34" fill="none" xmlns="http://www.w3.org/2000/svg">
<path d="M15.5839 24.7917C15.5839 22.9656 16.1153 21.2638 17.032 19.8324L6.02477 19.8332C4.26524 19.8332 2.83887 21.2595 2.83887 23.0192V24.3223C2.83887 25.1328 3.0916 25.923 3.56188 26.5831C5.7466 29.6493 9.32081 31.1681 14.1672 31.1681C15.4866 31.1681 16.7118 31.0556 17.8388 30.8288C16.4342 29.2123 15.5839 27.1013 15.5839 24.7917ZM21.2506 9.92318C21.2506 6.01117 18.0792 2.83984 14.1672 2.83984C10.2552 2.83984 7.08384 6.01117 7.08384 9.92318C7.08384 13.8352 10.2552 17.0065 14.1672 17.0065C18.0792 17.0065 21.2506 13.8352 21.2506 9.92318ZM32.5839 24.7915C32.5839 20.4884 29.0954 16.9999 24.7922 16.9999C20.489 16.9999 17.0006 20.4884 17.0006 24.7915C17.0006 29.0948 20.489 32.5832 24.7922 32.5832C29.0954 32.5832 32.5839 29.0948 32.5839 24.7915ZM24.6649 19.8447L24.7922 19.8332L24.9194 19.8447C25.2086 19.8971 25.4367 20.1252 25.4891 20.4143L25.5006 20.5415L25.4991 24.0832H29.0478L29.1751 24.0947C29.4641 24.1471 29.6922 24.3752 29.7446 24.6643L29.7561 24.7915L29.7446 24.9189C29.6922 25.208 29.4641 25.436 29.1751 25.4885L29.0478 25.4999H25.4991L25.5006 29.0415L25.4891 29.1689C25.4367 29.458 25.2086 29.686 24.9194 29.7385L24.7922 29.7499L24.6649 29.7385C24.3757 29.686 24.1478 29.458 24.0952 29.1689L24.0839 29.0415L24.0825 25.4999H20.5478L20.4204 25.4885C20.1313 25.436 19.9033 25.208 19.8508 24.9189L19.8394 24.7915L19.8508 24.6643C19.9033 24.3752 20.1313 24.1471 20.4204 24.0947L20.5478 24.0832H24.0825L24.0839 20.5415L24.0952 20.4143C24.1478 20.1252 24.3757 19.8971 24.6649 19.8447Z" fill="white"/>
</svg>
