<svg width="30" height="30" viewBox="0 0 30 30" fill="none" xmlns="http://www.w3.org/2000/svg">
<path d="M7.2097 7.3871L7.29289 7.29289C7.65338 6.93241 8.22061 6.90468 8.6129 7.2097L8.70711 7.29289L15 13.585L21.2929 7.29289C21.6834 6.90237 22.3166 6.90237 22.7071 7.29289C23.0976 7.68342 23.0976 8.31658 22.7071 8.70711L16.415 15L22.7071 21.2929C23.0676 21.6534 23.0953 22.2206 22.7903 22.6129L22.7071 22.7071C22.3466 23.0676 21.7794 23.0953 21.3871 22.7903L21.2929 22.7071L15 16.415L8.70711 22.7071C8.31658 23.0976 7.68342 23.0976 7.29289 22.7071C6.90237 22.3166 6.90237 21.6834 7.29289 21.2929L13.585 15L7.29289 8.70711C6.93241 8.34662 6.90468 7.77939 7.2097 7.3871L7.29289 7.29289L7.2097 7.3871Z" fill="white"/>
</svg>
