<svg width="20" height="20" viewBox="0 0 20 20" fill="none" xmlns="http://www.w3.org/2000/svg">
<path d="M6.87533 1.66602C5.44775 1.66602 4.27815 2.77053 4.17447 4.17162C4.24094 4.1679 4.30792 4.16602 4.37533 4.16602H12.292C14.248 4.16602 15.8337 5.75167 15.8337 7.70768V13.1243C15.8337 13.1918 15.8317 13.2588 15.8281 13.3252C17.2292 13.2215 18.3337 12.0519 18.3337 10.6243V5.62435C18.3337 3.43822 16.5615 1.66602 14.3753 1.66602H6.87533ZM14.9924 13.3327C14.8861 14.7311 13.7177 15.8327 12.292 15.8327H8.88924L5.83366 18.1243C5.14695 18.6393 4.16699 18.1494 4.16699 17.291V15.8248C2.76857 15.7184 1.66699 14.55 1.66699 13.1243V7.70768C1.66699 6.28201 2.76857 5.11362 4.16699 5.00724C4.23575 5.00202 4.30523 4.99935 4.37533 4.99935H12.292C13.7877 4.99935 15.0003 6.21191 15.0003 7.70768V13.1243C15.0003 13.1944 14.9977 13.2639 14.9924 13.3327Z" fill="white"/>
</svg>
