<svg width="34" height="34" viewBox="0 0 34 34" fill="none" xmlns="http://www.w3.org/2000/svg">
<path d="M14.625 5C8.75697 5 4 9.75697 4 15.625C4 17.2308 4.3569 18.7558 4.99643 20.1228C4.56842 21.8583 4.19768 23.712 4.0308 24.5745C3.84196 25.5506 4.6904 26.4057 5.6645 26.2323C6.54752 26.075 8.46696 25.7212 10.2495 25.3098C11.585 25.914 13.067 26.25 14.625 26.25C20.493 26.25 25.25 21.493 25.25 15.625C25.25 9.75697 20.493 5 14.625 5ZM14.571 27.6661C16.4668 29.4249 19.0056 30.5003 21.7956 30.5003C23.3532 30.5003 24.8349 30.1644 26.1701 29.5605C27.6488 29.9066 29.2674 30.2519 30.2976 30.4673C31.5618 30.7315 32.666 29.5967 32.3764 28.3431C32.1462 27.3466 31.7832 25.7998 31.4247 24.3718C32.0639 23.0051 32.4206 21.4805 32.4206 19.8753C32.4206 15.2244 29.4324 11.2715 25.2712 9.83174C25.7675 10.7342 26.1514 11.7072 26.404 12.7318C28.7458 14.2456 30.2956 16.8795 30.2956 19.8753C30.2956 21.2798 29.9557 22.6018 29.3548 23.7666L29.1699 24.125L29.2694 24.5157C29.5921 25.7843 29.9302 27.2074 30.1782 28.2707C29.0815 28.0388 27.6032 27.7179 26.2976 27.4071L25.9229 27.318L25.5781 27.4896C24.4401 28.0561 23.1566 28.3753 21.7956 28.3753C20.2946 28.3753 18.8845 27.9861 17.6605 27.3034C16.7171 27.5409 15.7294 27.667 14.7123 27.667C14.6652 27.667 14.6181 27.6667 14.571 27.6661Z" fill="white"/>
</svg>
