<svg width="18" height="18" viewBox="0 0 18 18" fill="none" xmlns="http://www.w3.org/2000/svg">
<path d="M15.5 13.4368C15.5 12.5052 14.7448 11.75 13.8132 11.75H3.68681C2.75521 11.75 2 12.5052 2 13.4368C2 14.3684 2.75521 15.1236 3.68681 15.1236H13.8132C14.7448 15.1236 15.5 14.3684 15.5 13.4368ZM12.5 8.56179C12.5 7.63021 11.7448 6.875 10.8132 6.875H3.68681C2.75521 6.875 2 7.63021 2 8.56179C2 9.49344 2.75521 10.2486 3.68681 10.2486H10.8132C11.7448 10.2486 12.5 9.49344 12.5 8.56179ZM9.5 3.68682C9.5 2.75521 8.74483 2 7.81318 2H3.68681C2.75521 2 2 2.75521 2 3.68682C2 4.61841 2.75521 5.37363 3.68681 5.37363H7.81318C8.74483 5.37363 9.5 4.61841 9.5 3.68682Z" fill="#E0E0E0"/>
</svg>
