<svg width="18" height="18" viewBox="0 0 18 18" fill="none" xmlns="http://www.w3.org/2000/svg">
<path d="M9 1C10.6568 1 12 2.34314 12 4V5.5H13.875C14.4963 5.5 15 6.00368 15 6.625V14.875C15 15.4963 14.4963 16 13.875 16H4.125C3.50368 16 3 15.4963 3 14.875V6.625C3 6.00368 3.50368 5.5 4.125 5.5H6V4C6 2.34314 7.34314 1 9 1ZM9.00008 9.625C8.37878 9.625 7.87508 10.1287 7.87508 10.75C7.87508 11.3713 8.37878 11.875 9.00008 11.875C9.62145 11.875 10.1251 11.3713 10.1251 10.75C10.1251 10.1287 9.62145 9.625 9.00008 9.625ZM9 2.5C8.17155 2.5 7.5 3.17157 7.5 4V5.5H10.5V4C10.5 3.17157 9.82845 2.5 9 2.5Z" fill="white"/>
</svg>
