<svg width="34" height="34" viewBox="0 0 34 34" fill="none" xmlns="http://www.w3.org/2000/svg">
<path d="M21.3294 20.0911C21.9822 22.1127 22.3119 23.8823 22.3119 25.4082C22.3119 28.8063 20.9815 31.4253 18.7702 31.4253C17.6372 31.4253 17.2432 30.7882 16.8115 29.2344L16.4295 27.7873C16.2864 27.2791 16.0373 26.4138 15.6827 25.1934C15.6732 25.1607 15.6594 25.1299 15.6411 25.1014L11.5799 18.7467C10.6193 17.2438 9.202 16.0885 7.53617 15.4507L5.7551 14.7687C4.63115 14.3383 3.97861 13.163 4.2077 11.9815L5.17976 6.9684C5.41654 5.74725 6.34206 4.7754 7.5502 4.47929L19.237 1.61489C22.8229 0.736004 26.4473 2.91048 27.3595 6.48804L29.5892 15.2327C30.1207 17.3176 28.8614 19.4387 26.7766 19.9703C26.462 20.0505 26.1387 20.0911 25.814 20.0911H21.3294Z" fill="white"/>
</svg>
