<svg width="34" height="34" viewBox="0 0 34 34" fill="none" xmlns="http://www.w3.org/2000/svg">
<path d="M16.9997 7.08366C23.6501 7.08366 29.0413 12.4749 29.0413 19.1253C29.0413 25.7757 23.6501 31.167 16.9997 31.167C10.3492 31.167 4.95801 25.7757 4.95801 19.1253C4.95801 12.4749 10.3492 7.08366 16.9997 7.08366ZM16.9997 11.3337C16.4618 11.3337 16.0172 11.7334 15.9468 12.252L15.9372 12.3962V18.7712L15.9468 18.9154C16.0172 19.4339 16.4618 19.8337 16.9997 19.8337C17.5376 19.8337 17.9821 19.4339 18.0525 18.9154L18.0622 18.7712V12.3962L18.0525 12.252C17.9821 11.7334 17.5376 11.3337 16.9997 11.3337ZM27.1577 7.25734L27.2729 7.34467L28.9008 8.76133C29.3434 9.14657 29.39 9.81768 29.0048 10.2603C28.6516 10.6661 28.0583 10.739 27.6208 10.4516L27.5057 10.3643L25.8779 8.94765C25.4352 8.56242 25.3888 7.8913 25.7739 7.44865C26.127 7.04289 26.7204 6.96996 27.1577 7.25734ZM20.1872 3.54199C20.774 3.54199 21.2497 4.01769 21.2497 4.60449C21.2497 5.1424 20.8499 5.58694 20.3314 5.65729L20.1872 5.66699H13.8122C13.2254 5.66699 12.7497 5.19129 12.7497 4.60449C12.7497 4.06658 13.1494 3.62205 13.668 3.5517L13.8122 3.54199H20.1872Z" fill="white"/>
</svg>
